<svg width="98" height="16" viewBox="0 0 98 16" fill="none" xmlns="http://www.w3.org/2000/svg">
<path d="M12.2109 12.7937L8.53195 15.9692C3.14665 15.7555 0 14.4578 0 10.4272H4.1016C4.1016 12.0761 5.47923 12.8242 10.6767 12.8242C11.2403 12.8242 11.7569 12.8242 12.2109 12.7937Z" fill="#ABB6B7"/>
<path d="M19.7089 5.31294H15.6073C15.6073 3.60302 13.8539 3.17554 9.58013 3.17554C9.20441 3.17554 8.84435 3.17554 8.53125 3.19081L12.1475 0.0610352C16.9067 0.381646 19.7089 1.9389 19.7089 5.31294Z" fill="#ABB6B7"/>
<path d="M15.9045 12.0304C16.1706 11.8014 16.2959 11.4961 16.2959 11.1449C16.2959 9.8472 15.3879 9.63346 10.2061 9.38918C3.2553 9.06857 0.484375 8.01514 0.484375 4.51895C0.484375 1.22124 3.80323 0.0914726 9.4077 0.0151367L5.11824 3.69453C4.72687 3.9846 4.58597 4.25941 4.58597 4.70216C4.58597 5.90827 5.54093 6.12201 10.1904 6.39682C16.4837 6.73269 20.3818 7.06857 20.3818 11.0075C20.3818 14.9617 16.7342 15.9083 11.3019 15.9999" fill="#ABB6B7"/>
<path d="M25.9883 3.5724V6.91591H37.4008V10.29H25.9883V15.7709H21.8867V0.213623H38.7628V3.5724H25.9883Z" fill="#ABB6B7"/>
<path d="M46.5264 10.4426L40.4053 15.7861H34.7539L43.7398 7.99988L34.7539 0.213623H40.4053L46.5264 5.55713L49.2034 7.99988" fill="#ABB6B7"/>
<path d="M50.7221 6.74797L58.2835 0.213623H52.632L47.9355 4.30523" fill="#ABB6B7"/>
<path d="M47.9199 11.6639L52.6321 15.7861H58.2835L50.6908 9.22119" fill="#ABB6B7"/>
<path d="M86.2276 10.4426L80.1221 15.7861H74.4707L83.4566 7.99988L74.4707 0.213623H80.1221L86.2276 5.55713L88.9202 7.99988" fill="#ABB6B7"/>
<path d="M90.4077 6.77851L98.0004 0.213623H92.3489L87.6211 4.33576" fill="#ABB6B7"/>
<path d="M87.6523 11.6945L92.3488 15.7861H98.0003L90.4389 9.25171" fill="#ABB6B7"/>
<path d="M76.662 7.99988C76.662 13.2976 73.0301 15.7861 68.9128 15.7861H57.3281V0.213623H68.9128C73.0457 0.213623 76.662 2.70217 76.662 7.99988ZM72.5604 7.99988C72.5604 4.21362 70.4626 3.5724 67.363 3.5724H61.4297V12.4274H67.363C70.4626 12.4274 72.5604 11.7861 72.5604 7.99988Z" fill="#ABB6B7"/>
</svg>
